<?xml version="1.0" encoding="iso-8859-1"?>
<!-- Uploaded to: SVG Repo, www.svgrepo.com, Generator: SVG Repo Mixer Tools -->
<svg height="800px" width="800px" version="1.1" id="Layer_1" xmlns="http://www.w3.org/2000/svg" xmlns:xlink="http://www.w3.org/1999/xlink" 
	 viewBox="0 0 499.6 499.6" xml:space="preserve">
<path style="fill:#676767;" d="M251.6,311.2C124,311.2,22,264.4,6.4,204.4V310c0,66.4,107.2,120.4,243.6,120.4
	S493.6,376,493.6,309.6v-94.8C465.6,270,372,311.2,251.6,311.2z"/>
<path style="fill:#7D8B95;" d="M249.6,70C113.2,70,6,123.2,6,188.8c0,2,0,4,0.4,6c6.4,62.8,112,112.8,244.4,112.8
	c126.4,0,226.8-45.6,242.8-104.8v-0.4c0-0.4-0.8-0.8-0.4-1.2c0.8-4,0.8-8.4,0.8-12.8C494,123.2,386.4,70,249.6,70z M454.4,234.4
	l-27.6,19.2c-43.6,24-108,38-176.8,38c-121.2,0-220.4-42.8-227.6-96.8c-0.4-2-0.4-4.4-0.4-6.4c0-56.8,102.4-103.2,228.4-103.2
	s228.4,46.4,228.4,103.2c0,4.8-0.8,9.2-2,13.6C472.8,213.2,465.6,224,454.4,234.4z"/>
<path style="fill:#CC0000;" d="M487.6,202.4L487.6,202.4c0,0,0.4-0.8,0.4-1.2C487.6,201.6,487.6,202,487.6,202.4z"/>
<path style="fill:#AEB1B4;" d="M253.6,86C126,86,22,132,22,188.4c0,2.4,0.4,4.4,0.4,6.8c8,53.2,108.4,95.6,230.8,95.6
	c70.4,0,131.2-13.2,175.6-37.6l32.4-25.6c10.4-9.6,13.2-30,16.4-40.4c1.6-4.8-0.4,2.4-0.4-2.4C478,128,381.2,86,253.6,86z"/>
<path d="M249.6,313.2C109.6,313.2,0,258.4,0,188.4S109.6,63.6,249.6,63.6s249.6,54.8,249.6,124.8S389.6,313.2,249.6,313.2z
	 M249.6,72C116.4,72,8,124.4,8,188.8s108.4,116.8,241.6,116.8s241.6-52.4,241.6-116.8S382.8,72,249.6,72z"/>
<path d="M250,436C110,436,0.4,380.4,0.4,309.6V194.4c0-2.4,1.6-4,4-4s4,1.6,4,4v115.2C8.4,374.8,116.8,428,250,428
	s241.6-53.2,241.6-118.4V194.4c0-2.4,1.6-4,4-4s4,1.6,4,4v115.2C499.6,380.4,389.6,436,250,436z"/>
<path d="M250,436c-2.4,0-4-1.6-4-4V309.2c0-2.4,1.6-4,4-4s4,1.6,4,4V432C254,434.4,252,436,250,436z"/>
<path d="M269.6,432c-2.4,0-4-1.6-4-4V309.2c0-2.4,1.6-4,4-4s4,1.6,4,4V428C273.6,430.4,272,432,269.6,432z"/>
<path d="M289.6,432c-2.4,0-4-1.6-4-4V309.2c0-2.4,1.6-4,4-4s4,1.6,4,4V428C293.6,430.4,291.6,432,289.6,432z"/>
<path d="M309.2,432c-2.4,0-4-1.6-4-4V309.2c0-2.4,1.6-4,4-4s4,1.6,4,4V428C313.2,430.4,311.6,432,309.2,432z"/>
<path d="M329.2,428.4c-2.4,0-4-1.6-4-4V305.6c0-2.4,1.6-4,4-4s4,1.6,4,4v118.8C333.2,426.4,331.2,428.4,329.2,428.4z"/>
<path d="M348.8,424.4c-2.4,0-4-1.6-4-4V301.6c0-2.4,1.6-4,4-4s4,1.6,4,4v118.8C352.8,422.4,351.2,424.4,348.8,424.4z"/>
<path d="M368.8,420.4c-2.4,0-4-1.6-4-4V297.6c0-2.4,1.6-4,4-4s4,1.6,4,4v118.8C372.8,418.4,370.8,420.4,368.8,420.4z"/>
<path d="M388.4,412.4c-2.4,0-4-1.6-4-4V289.6c0-2.4,1.6-4,4-4s4,1.6,4,4v118.8C392.4,410.8,390.8,412.4,388.4,412.4z"/>
<path d="M408.4,404.4c-2.4,0-4-1.6-4-4V285.6c0-2.4,1.6-4,4-4s4,1.6,4,4v114.8C412.4,402.8,410.4,404.4,408.4,404.4z"/>
<path d="M428,396.4c-2.4,0-4-1.6-4-4V273.6c0-2.4,1.6-4,4-4s4,1.6,4,4v118.8C432,394.8,430.4,396.4,428,396.4z"/>
<path d="M448,384.8c-2.4,0-4-1.6-4-4V262c0-2.4,1.6-4,4-4s4,1.6,4,4v118.8C452,382.8,450,384.8,448,384.8z"/>
<path d="M467.6,368.8c-2.4,0-4-1.6-4-4V246c0-2.4,1.6-4,4-4s4,1.6,4,4v118.8C471.6,367.2,470,368.8,467.6,368.8z"/>
<path d="M483.6,349.2c-2.4,0-4-1.6-4-4v-116c0-2.4,1.6-4,4-4s4,1.6,4,4v116C487.6,347.2,485.6,349.2,483.6,349.2z"/>
<path d="M230,432c-2.4,0-4-1.6-4-4V309.2c0-2.4,1.6-4,4-4s4,1.6,4,4V428C234,430.4,232.4,432,230,432z"/>
<path d="M210.4,432c-2.4,0-4-1.6-4-4V309.2c0-2.4,1.6-4,4-4s4,1.6,4,4V428C214.4,430.4,212.4,432,210.4,432z"/>
<path d="M190.4,432c-2.4,0-4-1.6-4-4V309.2c0-2.4,1.6-4,4-4s4,1.6,4,4V428C194.4,430.4,192.8,432,190.4,432z"/>
<path d="M170.8,428.4c-2.4,0-4-1.6-4-4V305.6c0-2.4,1.6-4,4-4s4,1.6,4,4v118.8C174.8,426.4,172.8,428.4,170.8,428.4z"/>
<path d="M150.8,424.4c-2.4,0-4-1.6-4-4V301.6c0-2.4,1.6-4,4-4s4,1.6,4,4v118.8C154.8,422.4,153.2,424.4,150.8,424.4z"/>
<path d="M131.2,420.4c-2.4,0-4-1.6-4-4V297.6c0-2.4,1.6-4,4-4s4,1.6,4,4v118.8C135.2,418.4,133.2,420.4,131.2,420.4z"/>
<path d="M111.2,412.4c-2.4,0-4-1.6-4-4V289.6c0-2.4,1.6-4,4-4s4,1.6,4,4v118.8C115.2,410.8,113.6,412.4,111.2,412.4z"/>
<path d="M91.6,404.4c-2.4,0-4-1.6-4-4V281.6c0-2.4,1.6-4,4-4s4,1.6,4,4v118.8C95.6,402.8,93.6,404.4,91.6,404.4z"/>
<path d="M71.6,396.4c-2.4,0-4-1.6-4-4V273.6c0-2.4,1.6-4,4-4s4,1.6,4,4v118.8C75.6,394.8,74,396.4,71.6,396.4z"/>
<path d="M52,384.8c-2.4,0-4-1.6-4-4V262c0-2.4,1.6-4,4-4s4,1.6,4,4v118.8C56,382.8,54,384.8,52,384.8z"/>
<path d="M32,370.8c-2.4,0-4-1.6-4-4V246c0-2.4,1.6-4,4-4s4,1.6,4,4v120.8C36,369.2,34.4,370.8,32,370.8z"/>
<path d="M12.4,344.8c-2.4,0-4-1.6-4-4V226c0-2.4,1.6-4,4-4s4,1.6,4,4v114.4C16.4,342.8,14.4,344.8,12.4,344.8z"/>
<path d="M249.6,293.6c-126.8,0-230.4-47.2-230.4-105.2S122.4,83.2,249.6,83.2c126.8,0,230.4,47.2,230.4,105.2
	c0,16.8-8.4,32.8-24.4,47.6c-1.6,1.6-4,1.2-5.6-0.4s-1.2-4,0.4-5.6c14.4-13.2,22-27.2,22-41.6c0-53.6-99.6-97.2-222.4-97.2
	c-122.4,0-222.4,43.6-222.4,97.2s99.6,97.2,222.4,97.2c68,0,131.2-13.6,174-36.8c2-1.2,4.4-0.4,5.6,1.6c1.2,2,0.4,4.4-1.6,5.6
	C383.6,279.6,318.8,293.6,249.6,293.6z"/>
</svg>